PathFileType	4	(x/y/z)	S06_PSF_T06
DataRate	CameraRate	NumFrames	NumMarkers	Units	OrigDataRate	OrigDataStartFrame	OrigNumFrames
240	240	11	51	mm	240	316	420
Frame#	Time	Sternum			R.Acromium			L.Acromium			Top.Head			R.ASIS			L.ASIS			R.PSIS			L.PSIS			R.Great.Tro			L.Great.Tro			R.Iliac.Crest			L.Iliac.Crest			V.Sacral			R.Thigh.Upper.Post			R.Thigh.Lower.Ant			R.Thigh.Lower.Post			R.Thigh.Upper.Ant			R.Knee.Lat			R.Knee.Med			R.Shank.Upper.Post			R.Shank.Lower.Ant			R.Shank.Lower.Post			R.Shank.Upper.Ant			R.Ankle.Lat			R.Ankle.Med			R.Heel.Upper			R.Heel.Med			R.Heel.Lat			R.Toe.Lat			R.Toe.Med			R.Toe.Tip			L.Thigh.Upper.Post			L.Thigh.Lower.Ant			L.Thigh.Lower.Post			L.Thigh.Upper.Ant			L.Knee.Lat			L.Knee.Med			L.Shank.Upper.Post			L.Shank.Lower.Ant			L.Shank.Lower.Post			L.Shank.Upper.Ant			L.Ankle.Lat			L.Ankle.Med			L.Heel.Upper			L.Heel.Med			L.Heel.Lat			L.Toe.Lat			L.Toe.Med			L.Toe.Tip			Cervical.Spine			Back			
		X1	Y1	Z1	X2	Y2	Z2	X3	Y3	Z3	X4	Y4	Z4	X5	Y5	Z5	X6	Y6	Z6	X7	Y7	Z7	X8	Y8	Z8	X9	Y9	Z9	X10	Y10	Z10	X11	Y11	Z11	X12	Y12	Z12	X13	Y13	Z13	X14	Y14	Z14	X15	Y15	Z15	X16	Y16	Z16	X17	Y17	Z17	X18	Y18	Z18	X19	Y19	Z19	X20	Y20	Z20	X21	Y21	Z21	X22	Y22	Z22	X23	Y23	Z23	X24	Y24	Z24	X25	Y25	Z25	X26	Y26	Z26	X27	Y27	Z27	X28	Y28	Z28	X29	Y29	Z29	X30	Y30	Z30	X31	Y31	Z31	X32	Y32	Z32	X33	Y33	Z33	X34	Y34	Z34	X35	Y35	Z35	X36	Y36	Z36	X37	Y37	Z37	X38	Y38	Z38	X39	Y39	Z39	X40	Y40	Z40	X41	Y41	Z41	X42	Y42	Z42	X43	Y43	Z43	X44	Y44	Z44	X45	Y45	Z45	X46	Y46	Z46	X47	Y47	Z47	X48	Y48	Z48	X49	Y49	Z49	X50	Y50	Z50	X51	Y51	Z51	

316	1.3125	208.95	1284.3	323.37	89.659	1491.2	494.03	64.348	1488.2	142.26	109.81	1806.9	313.63	158.28	1044.3	453.41	169.77	1049.1	200.56	-37.312	1066.8	358.89	-36.852	1071	278.27	99.518	968.6	502.25	75.611	971.05	147.1	77.404	1122.1	483.69	96.82	1118.6	164.01	-51.301	1034.5	321.23	113.5	718.39	508.05	177.07	640.17	486.12	108.17	629.77	494.62	185.4	730.9	494.8	119.8	523.74	486.97	141.78	518.16	359.46	-70.938	407.17	484.27	-84.016	321.27	460.06	-133.7	363.65	469.09	-22.392	365.18	475.82	-215.06	259.77	444.05	-197.72	256.59	356.13	-268.6	300.37	397.95	-292.22	286.78	363.35	-297.98	278.45	427.92	-248.82	104.44	447.62	-220.57	101.87	331.36	-185.94	40.642	370.61	185.98	721.19	170.4	245.26	655.58	235.88	182.24	632.95	193.99	242.55	747.2	208.45	186.47	541.17	211.82	208.12	555.71	331.63	157.56	311.55	227.12	225.15	254.01	235.09	155.78	240.36	246.43	222.89	324	221.34	209.71	106.17	252.04	215.79	127.73	339.17	133.52	72.009	296.16	137.29	43.723	328.5	139.3	45.682	266.61	320.25	45.943	233.76	336.38	49.151	352.62	410.53	62.95	300.59	21.081	1542.4	321.53	-33.661	1268.7	326.69
317	1.3167	214.23	1284.6	323.3	95.008	1491.6	493.98	69.778	1488.7	142.18	115.38	1807.5	313.49	163.48	1044.7	453.1	174.89	1049.5	200.26	-32.164	1067.2	358.7	-31.717	1071.4	278.06	105.07	969.01	502.01	80.533	971.56	146.8	82.576	1122.4	483.49	101.96	1119.1	163.79	-46.188	1035	320.99	122.67	719.23	508.14	187.11	641.66	485.94	118.27	630.55	494.86	194.25	732.52	494.18	131.13	524.71	487.19	152.1	519.33	359.4	-59.504	408.29	485.21	-72.908	322.61	460.63	-122.45	364.98	470.23	-11.102	366.35	476.2	-204.43	261.97	445.01	-187.18	258.31	357.18	-258.48	301.95	398.53	-282.05	287.8	364.15	-287.64	280.14	428.79	-237.14	106.91	450.22	-209.13	103.09	334.02	-174.1	41.984	373.85	189.67	721.24	170.05	248.95	655.41	235.33	185.58	633.06	193.77	246.52	747	207.85	189.39	541.23	211.71	211.5	555.77	331.41	159.15	311.8	227.29	226.39	253.85	235.15	156.97	240.64	246.65	224.55	323.83	221.35	210.1	106.21	252.27	216.31	127.73	339.35	133.63	72.128	296.25	137.36	43.789	328.56	139.37	45.852	266.65	320.33	45.843	233.74	336.52	48.614	352.77	410.64	62.276	300.68	26.515	1543	321.46	-28.415	1269.2	326.52
318	1.3208	219.49	1285	323.24	100.34	1492	493.94	75.198	1489.2	142.11	120.96	1808	313.36	168.67	1045.1	452.81	179.98	1049.9	199.98	-27.045	1067.7	358.52	-26.605	1071.9	277.85	110.59	969.46	501.77	85.41	972.06	146.5	87.722	1122.8	483.3	107.09	1119.6	163.58	-41.094	1035.4	320.76	131.82	720.16	508.2	197.09	643.25	485.69	128.33	631.42	495.06	203.04	734.22	493.51	142.4	525.77	487.34	162.38	520.6	359.29	-48.082	409.38	486.05	-61.723	323.89	461.13	-111.15	366.2	471.26	0.21787	367.51	476.53	-193.67	264	445.88	-176.49	259.82	358.16	-248.34	303.19	398.99	-271.82	288.4	364.83	-277.22	281.46	429.55	-224.98	109.21	452.88	-197.21	104.1	336.73	-161.63	43.383	377.2	193.31	721.29	169.74	252.58	655.23	234.8	188.85	633.18	193.56	250.44	746.78	207.28	192.24	541.3	211.61	214.8	555.81	331.2	160.69	312.05	227.46	227.59	253.71	235.2	158.12	240.92	246.88	226.16	323.67	221.35	210.46	106.25	252.5	216.8	127.73	339.51	133.74	72.241	296.35	137.42	43.854	328.62	139.44	46.018	266.7	320.39	45.756	233.72	336.66	48.117	352.9	410.74	61.657	300.76	31.937	1543.5	321.4	-23.187	1269.8	326.34
319	1.325	224.73	1285.4	323.19	105.65	1492.4	493.9	80.607	1489.6	142.04	126.53	1808.5	313.26	173.86	1045.6	452.55	185.06	1050.4	199.71	-21.951	1068.1	358.34	-21.512	1072.4	277.65	116.06	969.94	501.56	90.244	972.57	146.21	92.845	1123.1	483.11	112.2	1120.1	163.38	-36.018	1035.9	320.54	140.93	721.17	508.24	207.01	644.94	485.39	138.37	632.38	495.23	211.77	736	492.81	153.6	526.94	487.44	172.63	521.96	359.13	-36.679	410.44	486.8	-50.465	325.1	461.58	-99.825	367.32	472.18	11.562	368.67	476.8	-182.79	265.82	446.67	-165.64	261.12	359.08	-238.16	304.1	399.34	-261.5	288.59	365.41	-266.72	282.42	430.21	-212.38	111.34	455.57	-184.85	104.92	339.47	-148.59	44.809	380.6	196.92	721.36	169.44	256.16	655.04	234.29	192.08	633.29	193.36	254.31	746.57	206.75	195.03	541.37	211.52	218.03	555.84	331	162.18	312.31	227.62	228.74	253.57	235.25	159.22	241.2	247.09	227.71	323.52	221.34	210.81	106.3	252.71	217.28	127.74	339.66	133.84	72.348	296.44	137.48	43.92	328.68	139.51	46.18	266.75	320.45	45.68	233.69	336.78	47.66	353.03	410.83	61.091	300.82	37.349	1544.1	321.34	-17.975	1270.4	326.16
320	1.3292	229.96	1285.7	323.14	110.94	1492.8	493.87	86.007	1490.2	141.97	132.11	1809	313.18	179.03	1046.1	452.31	190.12	1050.8	199.47	-16.878	1068.6	358.16	-16.437	1072.9	277.46	121.5	970.46	501.35	95.036	973.08	145.92	97.948	1123.6	482.92	117.31	1120.6	163.19	-30.957	1036.4	320.33	149.99	722.27	508.26	216.85	646.72	485.03	148.36	633.44	495.36	220.44	737.85	492.09	164.73	528.19	487.48	182.86	523.41	358.93	-25.3	411.46	487.44	-39.136	326.24	461.98	-88.467	368.32	472.99	22.927	369.82	477.02	-171.77	267.42	447.39	-154.64	262.2	359.95	-227.92	304.68	399.58	-251.08	288.4	365.91	-256.11	283.02	430.78	-199.37	113.29	458.28	-172.07	105.52	342.22	-135.03	46.237	384.04	200.48	721.43	169.17	259.67	654.85	233.8	195.26	633.42	193.17	258.14	746.35	206.24	197.75	541.44	211.43	221.2	555.85	330.8	163.63	312.56	227.77	229.85	253.44	235.28	160.3	241.49	247.29	229.21	323.38	221.32	211.13	106.36	252.91	217.73	127.77	339.8	133.94	72.45	296.53	137.54	43.986	328.73	139.58	46.337	266.79	320.51	45.612	233.66	336.9	47.243	353.14	410.91	60.573	300.87	42.75	1544.7	321.28	-12.777	1271	325.97
321	1.3333	235.17	1286.1	323.1	116.22	1493.3	493.85	91.398	1490.7	141.9	137.69	1809.6	313.12	184.2	1046.6	452.09	195.16	1051.2	199.24	-11.823	1069.1	357.99	-11.379	1073.4	277.28	126.91	971.01	501.16	99.791	973.59	145.65	103.03	1124	482.74	122.4	1121	163.01	-25.911	1036.9	320.14	158.99	723.43	508.25	226.6	648.59	484.61	158.3	634.58	495.45	229.03	739.78	491.35	175.78	529.54	487.46	193.07	524.94	358.68	-13.95	412.43	487.98	-27.739	327.29	462.35	-77.088	369.22	473.71	34.309	370.97	477.21	-160.61	268.79	448.05	-143.47	263.04	360.76	-217.59	304.93	399.75	-240.55	287.82	366.34	-245.38	283.27	431.27	-186	115.04	460.98	-158.91	105.93	344.96	-120.99	47.643	387.5	204.01	721.51	168.91	263.13	654.66	233.33	198.4	633.56	192.98	261.92	746.13	205.77	200.42	541.51	211.35	224.31	555.85	330.61	165.03	312.82	227.9	230.93	253.33	235.3	161.33	241.77	247.47	230.67	323.25	221.29	211.44	106.42	253.1	218.18	127.81	339.93	134.04	72.546	296.61	137.59	44.054	328.78	139.64	46.489	266.83	320.55	45.55	233.63	337	46.864	353.23	410.98	60.101	300.91	48.14	1545.3	321.23	-7.5946	1271.6	325.78
322	1.3375	240.36	1286.5	323.06	121.49	1493.7	493.82	96.78	1491.2	141.84	143.28	1810.1	313.08	189.37	1047.1	451.89	200.18	1051.6	199.02	-6.7849	1069.6	357.83	-6.3357	1074	277.11	132.29	971.6	500.98	104.51	974.11	145.4	108.11	1124.5	482.56	127.48	1121.5	162.84	-20.877	1037.4	319.96	167.93	724.67	508.23	236.26	650.54	484.14	168.18	635.81	495.51	237.54	741.77	490.6	186.75	530.97	487.39	203.25	526.55	358.4	-2.6308	413.37	488.43	-16.278	328.26	462.68	-65.69	370	474.33	45.705	372.09	477.37	-149.31	269.92	448.65	-132.14	263.65	361.53	-207.17	304.84	399.85	-229.88	286.89	366.72	-234.53	283.17	431.71	-172.3	116.59	463.65	-145.41	106.13	347.69	-106.52	49.005	390.93	207.51	721.61	168.68	266.54	654.46	232.89	201.5	633.7	192.78	265.67	745.91	205.33	203.03	541.58	211.26	227.37	555.83	330.41	166.4	313.08	228.01	231.97	253.22	235.3	162.34	242.06	247.63	232.08	323.13	221.25	211.73	106.49	253.27	218.6	127.86	340.03	134.13	72.636	296.69	137.64	44.125	328.83	139.7	46.635	266.87	320.6	45.491	233.6	337.1	46.524	353.31	411.04	59.67	300.94	53.52	1545.9	321.18	-2.4253	1272.2	325.59
323	1.3417	245.54	1286.9	323.03	126.73	1494.1	493.8	102.15	1491.8	141.78	148.86	1810.6	313.06	194.53	1047.7	451.7	205.19	1052.1	198.83	-1.7598	1070.1	357.68	-1.3068	1074.5	276.95	137.65	972.22	500.82	109.2	974.65	145.17	113.17	1125	482.39	132.55	1122.1	162.68	-15.854	1038	319.79	176.81	725.97	508.2	245.81	652.57	483.62	178	637.1	495.53	245.97	743.82	489.85	197.62	532.48	487.28	213.42	528.22	358.09	8.6534	414.26	488.79	-4.7543	329.14	463	-54.278	370.66	474.86	57.112	373.2	477.51	-137.87	270.79	449.21	-120.66	264.01	362.26	-196.63	304.44	399.91	-219.07	285.6	367.06	-223.53	282.74	432.1	-158.3	117.93	466.28	-131.57	106.15	350.39	-91.668	50.307	394.32	210.99	721.72	168.46	269.89	654.25	232.46	204.56	633.85	192.59	269.38	745.69	204.93	205.59	541.66	211.18	230.37	555.8	330.22	167.73	313.34	228.1	232.99	253.13	235.29	163.32	242.36	247.76	233.46	323.02	221.19	212.01	106.56	253.43	219.01	127.91	340.12	134.22	72.72	296.75	137.68	44.199	328.87	139.75	46.775	266.9	320.63	45.436	233.55	337.2	46.22	353.38	411.09	59.277	300.95	58.891	1546.5	321.13	2.7314	1272.9	325.4
324	1.3458	250.7	1287.3	323	131.97	1494.6	493.78	107.52	1492.3	141.72	154.45	1811.2	313.06	199.67	1048.3	451.53	210.18	1052.5	198.64	3.2538	1070.7	357.54	3.7086	1075.1	276.81	142.99	972.88	500.68	113.88	975.2	144.95	118.22	1125.5	482.22	137.61	1122.6	162.54	-10.841	1038.6	319.64	185.62	727.33	508.15	255.25	654.66	483.06	187.74	638.46	495.52	254.32	745.92	489.1	208.4	534.07	487.12	223.55	529.97	357.75	19.901	415.1	489.06	6.8277	329.93	463.29	-42.856	371.21	475.32	68.528	374.28	477.63	-126.29	271.4	449.74	-109.01	264.14	362.94	-185.96	303.71	399.93	-208.11	283.99	367.39	-212.39	281.98	432.47	-144.03	119.05	468.86	-117.44	105.98	353.03	-76.467	51.535	397.65	214.44	721.84	168.26	273.2	654.05	232.06	207.6	634.02	192.4	273.06	745.47	204.55	208.11	541.74	211.1	233.33	555.76	330.03	169.03	313.61	228.16	233.97	253.04	235.26	164.27	242.65	247.87	234.8	322.92	221.11	212.27	106.63	253.56	219.4	127.98	340.19	134.3	72.798	296.81	137.72	44.276	328.9	139.81	46.91	266.93	320.67	45.382	233.51	337.28	45.952	353.43	411.15	58.918	300.95	64.251	1547.1	321.09	7.8762	1273.5	325.2
325	1.35	255.85	1287.8	322.97	137.19	1495	493.77	112.88	1492.9	141.67	160.04	1811.7	313.08	204.81	1049	451.37	215.16	1053	198.47	8.2577	1071.3	357.42	8.7113	1075.7	276.68	148.32	973.57	500.55	118.53	975.75	144.76	123.26	1126	482.06	142.67	1123.1	162.4	-5.8351	1039.2	319.51	194.35	728.73	508.08	264.58	656.82	482.47	197.41	639.88	495.47	262.58	748.07	488.35	219.09	535.73	486.91	233.65	531.77	357.38	31.109	415.88	489.25	18.465	330.62	463.58	-31.425	371.64	475.7	79.949	375.33	477.74	-114.56	271.76	450.23	-97.207	264.03	363.59	-175.16	302.67	399.94	-196.99	282.06	367.71	-201.1	280.89	432.81	-129.51	119.95	471.35	-103.03	105.65	355.62	-60.952	52.679	400.88	217.87	721.97	168.07	276.45	653.85	231.69	210.61	634.19	192.21	276.71	745.25	204.21	210.58	541.82	211.01	236.23	555.71	329.84	170.29	313.88	228.2	234.93	252.97	235.22	165.2	242.95	247.96	236.11	322.84	221.02	212.53	106.71	253.68	219.78	128.06	340.24	134.39	72.872	296.87	137.76	44.355	328.93	139.86	47.04	266.95	320.7	45.328	233.46	337.36	45.716	353.47	411.2	58.589	300.94	69.602	1547.7	321.05	13.01	1274.2	325
326	1.3542	260.98	1288.2	322.94	142.4	1495.5	493.75	118.24	1493.5	141.61	165.63	1812.3	313.12	209.94	1049.6	451.22	220.13	1053.4	198.31	13.254	1071.9	357.3	13.702	1076.4	276.57	153.63	974.29	500.43	123.17	976.32	144.58	128.29	1126.6	481.91	147.72	1123.7	162.28	-0.83627	1039.8	319.39	202.99	730.18	508	273.8	659.02	481.85	206.99	641.35	495.39	270.75	750.24	487.62	229.67	537.44	486.67	243.69	533.63	356.99	42.278	416.61	489.37	30.156	331.22	463.85	-19.988	371.95	476.02	91.372	376.35	477.84	-102.69	271.85	450.69	-85.252	263.69	364.21	-164.22	301.33	399.94	-185.7	279.82	368.03	-189.65	279.48	433.15	-114.76	120.63	473.76	-88.36	105.15	358.12	-45.151	53.734	404	221.28	722.12	167.9	279.66	653.64	231.34	213.59	634.37	192.01	280.33	745.04	203.91	213.01	541.9	210.93	239.08	555.66	329.65	171.53	314.14	228.22	235.86	252.91	235.16	166.11	243.25	248.03	237.38	322.76	220.92	212.77	106.79	253.79	220.15	128.14	340.28	134.47	72.94	296.91	137.79	44.438	328.95	139.91	47.165	266.98	320.73	45.275	233.41	337.44	45.51	353.49	411.24	58.289	300.92	74.945	1548.3	321.01	18.133	1274.8	324.81
